<svg xmlns="http://www.w3.org/2000/svg" viewBox="0 0 640 512"><defs><style>.fa-secondary{opacity:.4}</style></defs><path d="M416 64c0 2.3-3.3 6.1-9.1 10.3a117.34 117.34 0 0 1 16.6 27.1C438.72 90.9 448 78 448 64c0-35.3-57.3-64-128-64S192 28.7 192 64c0 14 9.3 26.9 24.5 37.4a109 109 0 0 1 16.6-27.1c-5.8-4.1-9.1-7.9-9.1-10.3 0-8 34-32 96-32s96 24 96 32zm-267.49 96C95 160 48 204.9 48 256c0 26.8 5 36.7 14.5 53.2 3.2 5.5 7.1 12.3 11.9 22.1a49.38 49.38 0 0 1 0 43.1l-38.2 78.7a40.83 40.83 0 0 0 2.1 39.9 40.17 40.17 0 0 0 34.2 19h52.89l24.49-48H84.21l33.4-68.6a97.72 97.72 0 0 0 0-85.1c-5.4-11.2-9.9-18.9-13.5-25.1-7.2-12.4-8.1-14-8.1-29.2 0-24.7 25.5-48 52.4-48a44.46 44.46 0 0 1 32.2 13.9l64.81 65.32a104 104 0 0 1 41.87-26L215 188.2a93.15 93.15 0 0 0-66.49-28.2zm455.26 293.1l-38.19-78.6a49.38 49.38 0 0 1 0-43.1c4.79-9.8 8.69-16.7 11.89-22.1C587 292.7 592 282.8 592 256c0-51.1-46.89-96-100.39-96a93.08 93.08 0 0 0-66.29 28.1l-72.58 73.28a104 104 0 0 1 41.52 26.08l65.25-65.76a44.66 44.66 0 0 1 32.1-13.7c27 0 52.4 23.3 52.4 48 0 15.2-.9 16.8-8.1 29.2-3.6 6.2-8 14-13.5 25.1a97.72 97.72 0 0 0 0 85.1l33.4 68.6H488l24 48h55.58a40.29 40.29 0 0 0 34.19-19 41.09 41.09 0 0 0 2-39.9z" class="fa-secondary"/><path d="M320 224a80 80 0 1 0-80-80 80 80 0 0 0 80 80zm92.73 89.5a104 104 0 0 0-185.7-.75L125.41 512H512z" class="fa-primary"/></svg>