<svg xmlns="http://www.w3.org/2000/svg" viewBox="0 0 384 512"><defs><style>.fa-secondary{opacity:.4}</style></defs><path d="M272 288v32l-48 64h-64l-48-64v-32z" class="fa-secondary"/><path d="M192 160a80 80 0 1 0-80-80 80 80 0 0 0 80 80zM89 342.7L56.8 383a40.08 40.08 0 0 0-.8 49l48 64a40 40 0 1 0 64-48zM376.71 145a40.08 40.08 0 0 0-55.71-9.8l-40.6 28.5c-52.71 37-124.22 37-176.82 0L63 135.31a40 40 0 1 0-46 65.4l40.6 28.5A237.5 237.5 0 0 0 112 257.1V288h160v-30.8a237.64 237.64 0 0 0 54.4-27.89l40.6-28.5a40.07 40.07 0 0 0 9.71-55.81zM295 342.7L240 416l-24 32a40 40 0 0 0 64 48l48-64a40.08 40.08 0 0 0-.8-49z" class="fa-primary"/></svg>