<svg xmlns="http://www.w3.org/2000/svg" viewBox="0 0 576 512"><defs><style>.fa-secondary{opacity:.4}</style></defs><path d="M274.81 96H160V32a32 32 0 0 1 32-32h64a31.84 31.84 0 0 1 17.62 5.29 24 24 0 0 0-15.8 29.1zM0 480a32 32 0 0 0 32 32h64a32 32 0 0 0 32-32v-64H0zM386.82 34.39c-.21-.8-.38-1.59-.51-2.39h-63l122.87 445.61c.21.8.38 1.59.51 2.39h63zM96 0H32A32 32 0 0 0 0 32v64h128V32A32 32 0 0 0 96 0zm64 480a32 32 0 0 0 32 32h64a32 32 0 0 0 32-32v-64H160zM0 384h128V128H0zm283.63-256H160v256h128V143.83z" class="fa-secondary"/><path d="M0 128h128V96H0zm160 288h128v-32H160zM0 416h128v-32H0zM319.38 17.81a23.89 23.89 0 0 0-29.27-17L274.72 5a24 24 0 0 0-16.9 29.42l17 61.61H160v32h123.63l101 366.19a23.89 23.89 0 0 0 29.27 17l15.38-4.22a24 24 0 0 0 16.9-29.42zm255.8 459.8l-126.8-459.8a23.89 23.89 0 0 0-29.27-17L403.72 5a24 24 0 0 0-16.9 29.42l126.8 459.8a23.89 23.89 0 0 0 29.27 17l15.39-4.22a24 24 0 0 0 16.9-29.39z" class="fa-primary"/></svg>