<svg xmlns="http://www.w3.org/2000/svg" viewBox="0 0 640 512"><defs><style>.fa-secondary{opacity:.4}</style></defs><path d="M338.81 97H224V33a32 32 0 0 1 32-32h64a31.84 31.84 0 0 1 17.62 5.29 24 24 0 0 0-15.8 29.1zm112-61.61c-.21-.8-.38-1.59-.51-2.39h-63l122.88 445.61c.21.8.38 1.59.51 2.39h63zM192 109.33V33a32 32 0 0 0-32-32H96a32 32 0 0 0-32 32v76.33a160.3 160.3 0 0 1 128 0zM224 481a32 32 0 0 0 32 32h64a32 32 0 0 0 32-32v-64H224zm123.63-352H225.3a160 160 0 0 1-1.3 255v1h128V144.83zM64 402.67V481a32 32 0 0 0 32 32h64a32 32 0 0 0 32-32v-78.33a160.3 160.3 0 0 1-128 0z" class="fa-secondary"/><path d="M639.18 478.61l-126.8-459.8a23.89 23.89 0 0 0-29.27-17L467.72 6a24 24 0 0 0-16.9 29.42l126.8 459.8a23.89 23.89 0 0 0 29.27 17l15.39-4.22a24 24 0 0 0 16.9-29.39zM224 417h128v-32H224zM383.38 18.81a23.89 23.89 0 0 0-29.27-17L338.72 6a24 24 0 0 0-16.9 29.42l17 61.61H224v32h123.63l101 366.19a23.89 23.89 0 0 0 29.27 17l15.38-4.22a24 24 0 0 0 16.9-29.42zM128 128a128 128 0 1 0 128 128 128 128 0 0 0-128-128zm64 144a5.33 5.33 0 0 1-5.33 5.33h-37.34v37.34A5.33 5.33 0 0 1 144 320h-32a5.33 5.33 0 0 1-5.33-5.33v-37.34H69.33A5.33 5.33 0 0 1 64 272v-32a5.33 5.33 0 0 1 5.33-5.33h37.34v-37.34A5.33 5.33 0 0 1 112 192h32a5.33 5.33 0 0 1 5.33 5.33v37.34h37.34A5.33 5.33 0 0 1 192 240z" class="fa-primary"/></svg>