<svg xmlns="http://www.w3.org/2000/svg" viewBox="0 0 512 512"><defs><style>.fa-secondary{opacity:.4}</style></defs><path d="M480 32H256l-64 48H16A16 16 0 0 0 0 96v32h512V64a32.09 32.09 0 0 0-32-32zM256 216a88 88 0 1 0 88 88 88.13 88.13 0 0 0-88-88zm0 56a32.09 32.09 0 0 0-32 32 16 16 0 0 1-32 0 64.06 64.06 0 0 1 64-64 16 16 0 0 1 0 32z" class="fa-secondary"/><path d="M0 160v272a48 48 0 0 0 48 48h416a48 48 0 0 0 48-48V160zm256 264a120 120 0 1 1 120-120 120.1 120.1 0 0 1-120 120zM176 48a16 16 0 0 0-16-16H64a16 16 0 0 0-16 16v32h128z" class="fa-primary"/></svg>