<svg xmlns="http://www.w3.org/2000/svg" viewBox="0 0 640 512"><defs><style>.fa-secondary{opacity:.4}</style></defs><path d="M84.94 205.81c-116.1 118.4-88.35 144.27-60.4 162.89 14.73 9.81 30.2 19.68 46 29.41 18.29-28.22 47.93-67.63 93.91-113.61 45.47-45.5 84.55-74.94 112.66-93.28-9.69-15.74-19.51-31.14-29.28-45.81-18.62-27.95-44.49-55.7-162.89 60.4zM480 0C314.19 1.62 315.52 39.54 322.11 72.47c3.47 17.35 7.44 35.27 11.74 53.33 32.89-7 81.71-13.93 146.74-13.93 64.29 0 112.75 6.76 145.62 13.7 4.28-18 8.22-35.81 11.68-53.1C644.48 39.54 645.81 1.62 480 0z" class="fa-secondary"/><path d="M480.59 143.88c-61.87 0-108 6.6-139 13.15 33.85 130 86.05 259 138.29 259h.12c52.3-.15 104.57-129.16 138.44-259.21-30.94-6.5-76.74-12.94-137.85-12.94zM480 341c-11.38-16.35-25.53-45.33-40.17-83.84 12.78-.69 26.14-1.19 40.81-1.19 14.2 0 27.21.45 39.63 1.11C505.54 295.59 491.36 324.6 480 341zm-292.91-33.86c-43.74 43.74-71.71 81.05-89 107.56C214 482.68 342.09 537 379 500l.06-.06c36.88-37.09-17.38-165.27-85.4-281.18-26.42 17.34-63.35 45.17-106.57 88.38zM326 447c-19.61-3.51-50.11-14-87.69-30.88 8.55-9.53 17.64-19.32 28-29.7 10-10 19.56-18.92 28.81-27.24C312 396.77 322.5 427.31 326 447z" class="fa-primary"/></svg>