<svg xmlns="http://www.w3.org/2000/svg" viewBox="0 0 512 512"><defs><style>.fa-secondary{opacity:.4}</style></defs><path d="M290.59 176c-20.18 0-106.82 2-162.59 86v-86a96.1 96.1 0 0 0-96-96 32 32 0 0 0 0 64 32 32 0 0 1 32 32v256a64.06 64.06 0 0 0 64 64h176a16 16 0 0 0 16-16v-16a32 32 0 0 0-32-32h-32l128-96v144a16 16 0 0 0 16 16h32a16 16 0 0 0 16-16V273.86a126.78 126.78 0 0 1-32 4.54c-61.81 0-113.52-44.05-125.41-102.4zM376 160a16 16 0 1 0-16-16 16 16 0 0 0 16 16zm80-32a16 16 0 1 0 16 16 16 16 0 0 0-16-16z" class="fa-secondary"/><path d="M448 80h-64l-64-64v134.4a96 96 0 0 0 192 0V16zm-72 80a16 16 0 1 1 16-16 16 16 0 0 1-16 16zm80 0a16 16 0 1 1 16-16 16 16 0 0 1-16 16z" class="fa-primary"/></svg>