<svg xmlns="http://www.w3.org/2000/svg" viewBox="0 0 512 512"><defs><style>.fa-secondary{opacity:.4}</style></defs><path d="M464 64H48a48 48 0 0 0-48 48v288a48 48 0 0 0 48 48h416a48 48 0 0 0 48-48V112a48 48 0 0 0-48-48zm0 336H48V112h416z" class="fa-secondary"/><path d="M417.7 288.6a6.18 6.18 0 0 0-9.2-.9c-41.2 37.9-92.2 15.4-92.2-32.6 0-46.1 53.8-63.2 94.6-31.2a6.23 6.23 0 0 0 9.1-1.7l17.5-30.5c1.5-2.5 1.1-3.7-1-5.7-50.8-49.4-172.5-27.2-172.5 70.1 0 100 119.2 124.8 172.7 67.9a6 6 0 0 0 .5-7.7zm-190.4 0a6.18 6.18 0 0 0-9.2-.9c-41.2 37.9-92.2 15.4-92.3-32.6 0-46.1 53.8-63.2 94.6-31.2a6.23 6.23 0 0 0 9.1-1.7l17.5-30.5c1.5-2.5 1.1-3.7-1-5.7-50.8-49.4-172.5-27.2-172.5 70.1 0 100 119.2 124.7 172.8 67.9a6 6 0 0 0 .5-7.7z" class="fa-primary"/></svg>