<svg xmlns="http://www.w3.org/2000/svg" viewBox="0 0 512 512"><defs><style>.fa-secondary{opacity:.4}</style></defs><path d="M384 160c-1.36 0-2.71 0-4.05.07a128 128 0 1 0-247.9 0c-1.34 0-2.69-.07-4.05-.07a128 128 0 1 0 88 221c-.3 32.57-3.65 47.8-53 69.72A32 32 0 0 0 175.86 512h160.28A32 32 0 0 0 349 450.7c-48.81-21.76-52.52-36.45-52.95-69.71A128 128 0 1 0 384 160zm0 192a63.68 63.68 0 0 1-44-17.5L256 255l-84 79.51A64 64 0 1 1 128 224h2.06l85.28 2.66L194 144.08a64 64 0 1 1 124 0l-21.34 82.62 85.28-2.7H384a64 64 0 0 1 0 128z" class="fa-secondary"/><path d="M384 352a63.68 63.68 0 0 1-44-17.5L256 255l-84 79.51A64 64 0 1 1 128 224h2.06l85.28 2.66L194 144.08a64 64 0 1 1 124 0l-21.34 82.62 85.28-2.7H384a64 64 0 0 1 0 128z" class="fa-primary"/></svg>