<svg xmlns="http://www.w3.org/2000/svg" viewBox="0 0 512 512"><defs><style>.fa-secondary{opacity:.4}</style></defs><path d="M256 368c-100.54 0-176-62.31-176-128 0-65.43 75.2-128 176-128 100.54 0 176 62.31 176 128 0 65.43-75.2 128-176 128z" class="fa-secondary"/><path d="M256 32C114.6 32 0 125.1 0 240c0 49.6 21.4 95 57 130.7C44.5 421.1 2.7 466 2.2 466.5a8 8 0 0 0-1.5 8.7A7.83 7.83 0 0 0 8 480c66.3 0 116-31.8 140.6-51.4A305.11 305.11 0 0 0 256 448c141.4 0 256-93.1 256-208S397.4 32 256 32zm0 336c-100.54 0-176-62.31-176-128 0-65.43 75.2-128 176-128 100.54 0 176 62.31 176 128 0 65.43-75.2 128-176 128z" class="fa-primary"/></svg>