<svg xmlns="http://www.w3.org/2000/svg" viewBox="0 0 512 512"><defs><style>.fa-secondary{opacity:.4}</style></defs><path d="M448 0H64A64.06 64.06 0 0 0 0 64v288a64.06 64.06 0 0 0 64 64h96v84a12 12 0 0 0 19.1 9.7L304 416h144a64.06 64.06 0 0 0 64-64V64a64.06 64.06 0 0 0-64-64zm-16 321.78A14.45 14.45 0 0 1 417.33 336H94.67A14.45 14.45 0 0 1 80 321.78V94.22A14.45 14.45 0 0 1 94.67 80h322.66A14.45 14.45 0 0 1 432 94.22z" class="fa-secondary"/><path d="M432 94.22v227.56A14.45 14.45 0 0 1 417.33 336H94.67A14.45 14.45 0 0 1 80 321.78V94.22A14.45 14.45 0 0 1 94.67 80h322.66A14.45 14.45 0 0 1 432 94.22z" class="fa-primary"/></svg>