<svg xmlns="http://www.w3.org/2000/svg" viewBox="0 0 640 512"><defs><style>.fa-secondary{opacity:.4}</style></defs><path d="M528 128.16a16 16 0 1 0 16 16 16 16 0 0 0-16-16zM416 256v.16h-32a64.07 64.07 0 0 1-64-64v-56.8a96 96 0 0 1-32-71.2 94.77 94.77 0 0 1 5.9-32H192c-106 0-192 86-192 192v112a16 16 0 0 0 16 16h16v144a16 16 0 0 0 16 16h64a16 16 0 0 0 16-16V388.31c32.35 17.55 70.72 27.85 112 27.85s79.65-10.3 112-27.85v107.85a16 16 0 0 0 16 16h64a16 16 0 0 0 16-16V288a32 32 0 0 1-32-32z" class="fa-secondary"/><path d="M512 32.16h-72.65A63.9 63.9 0 1 0 352 119.28v72.88A32 32 0 0 0 380.78 224H416v32a32 32 0 0 0 32 32v.16h64c23.44 0 45.11-6.76 64-17.75v97.34a16.26 16.26 0 0 1-15.86 16.41 16 16 0 0 1-16.14-16c0-8.78-7.64-16-16.42-16H496a16 16 0 0 0-16 16 80.07 80.07 0 0 0 88.36 79.57C610 443.48 640 405.27 640 363.43V160.16a128 128 0 0 0-128-128zm16 128a16 16 0 1 1 16-16 16 16 0 0 1-16 16z" class="fa-primary"/></svg>