<svg xmlns="http://www.w3.org/2000/svg" viewBox="0 0 512 512"><defs><style>.fa-secondary{opacity:.4}</style></defs><path d="M0 131v-19a48 48 0 0 1 48-48h416a48 48 0 0 1 48 48v19a23.93 23.93 0 0 1-9.2 18.9c-30.6 24-40.7 32.4-173.4 128.7-16.8 12.2-50.2 41.8-73.4 41.4-23.2.4-56.6-29.2-73.4-41.4C49.9 182.3 39.8 173.8 9.2 149.9A24.08 24.08 0 0 1 0 131z" class="fa-secondary"/><path d="M0 400V195.6a6 6 0 0 1 9.7-4.7c22.4 17.4 52.1 39.5 154.1 113.6 21.1 15.4 56.7 47.8 92.2 47.6 35.7.3 72-32.8 92.3-47.6 102-74.1 131.6-96.3 154-113.7a6 6 0 0 1 9.7 4.7V400a48 48 0 0 1-48 48H48a48 48 0 0 1-48-48z" class="fa-primary"/></svg>