<svg xmlns="http://www.w3.org/2000/svg" viewBox="0 0 512 512"><defs><style>.fa-secondary{opacity:.4}</style></defs><path d="M448 96v161.62l-48 34.67V112H112v180.29l-48-34.67V96a32 32 0 0 1 32-32h320a32 32 0 0 1 32 32z" class="fa-secondary"/><path d="M248 352h16a8 8 0 0 0 8-8v-16.12c23.62-.63 42.67-20.54 42.67-45.07 0-20-13-37.81-31.58-43.39l-45-13.5c-5.16-1.55-8.77-6.78-8.77-12.73 0-7.27 5.3-13.19 11.8-13.19h28.11a24 24 0 0 1 12.82 3.72 8.21 8.21 0 0 0 10.13-.73l11.75-11.21a8 8 0 0 0-.57-12.14A57.26 57.26 0 0 0 272 168.29V152a8 8 0 0 0-8-8h-16a8 8 0 0 0-8 8v16.12c-23.62.63-42.67 20.55-42.67 45.07 0 20 13 37.81 31.58 43.39l45 13.5c5.16 1.55 8.77 6.78 8.77 12.73 0 7.27-5.3 13.19-11.8 13.19h-28.11a24 24 0 0 1-12.77-3.72 8.21 8.21 0 0 0-10.13.73l-11.75 11.21a8 8 0 0 0 .57 12.14A57.26 57.26 0 0 0 240 327.71V344a8 8 0 0 0 8 8zm81.4-310.56C312.6 29.18 279.2-.35 256 0c-23.2-.35-56.59 29.17-73.41 41.44L152 64h208zM64 129c-23.88 17.69-42.67 31.65-45.61 34A48 48 0 0 0 0 200.72v10.65l64 46.24zm192 288.13a79.89 79.89 0 0 1-46.86-15.19L0 250.86V464a48 48 0 0 0 48 48h416a48 48 0 0 0 48-48V250.86L302.86 401.94A80 80 0 0 1 256 417.13zM493.61 163c-2.94-2.3-21.73-16.26-45.61-33.93v128.54l64-46.24v-10.65A48 48 0 0 0 493.61 163z" class="fa-primary"/></svg>