<svg xmlns="http://www.w3.org/2000/svg" viewBox="0 0 512 512"><defs><style>.fa-secondary{opacity:.4}</style></defs><path d="M511.9 96v243.1a31.9 31.9 0 0 1-13.8 26.4c-35.8 24.6-74.3 40.9-122.5 40.9-67.4 0-111.6-34.8-165.2-34.8-50.8 0-86.1 10-114.4 22.1v-51.5a315 315 0 0 1 73.6-16.6v-71.3c-26.1 2.4-47.4 8.1-73.6 17.4v-66.5c29-10.7 51.2-17.8 73.6-20.9v70c32.8-3 53.9-.6 73.6 3.8v68.5c26.3 4.6 49.7 13.9 73.6 21.3v-67.4c25.7 7.1 46.6 9.3 73.6 5.6v71.6c25.1-2.4 48.5-11 73.6-27.1v-70.5c-22.2 14.2-48.8 22.6-73.6 26V215c27.3-4.4 50-14.1 73.6-23.9v-70.5c-21.3 8.9-46.6 17.7-73.6 22.5V215c-26 4.2-49.9 2.6-73.6-2.7v68.1c-24.3-6.7-47.5-16.4-73.6-22.3V190c24.2 6.7 47.6 16.4 73.6 22.2v-68.3c-26.4-4.6-49.9-13.9-73.6-21.3V190c-25.2-7-46.6-9.4-73.6-5.7v-71.6c-23.5 2.2-40.4 9.8-73.6 22V102a56.26 56.26 0 0 0 20.16-25.6C142 64 165 64.05 184.3 64.05c67.4 0 111.7 34.8 165.2 34.8 40.5 0 82.7-16 117-31.9 21.2-9.8 45.5 5.7 45.4 29.05z" class="fa-secondary"/><path d="M120 56a55.93 55.93 0 0 1-24 46v388a22 22 0 0 1-22 22H54a22 22 0 0 1-22-22V102a56 56 0 1 1 88-46z" class="fa-primary"/></svg>