<svg xmlns="http://www.w3.org/2000/svg" viewBox="0 0 576 512"><defs><style>.fa-secondary{opacity:.4}</style></defs><path d="M462.25 85.37l96.53 144.79A79.7 79.7 0 0 0 528 224H48a79.7 79.7 0 0 0-30.78 6.16l96.53-144.79A48 48 0 0 1 153.69 64h268.62a48 48 0 0 1 39.94 21.37z" class="fa-secondary"/><path d="M528 256H48a48 48 0 0 0-48 48v96a48 48 0 0 0 48 48h480a48 48 0 0 0 48-48v-96a48 48 0 0 0-48-48zM384 384a32 32 0 1 1 32-32 32 32 0 0 1-32 32zm96 0a32 32 0 1 1 32-32 32 32 0 0 1-32 32z" class="fa-primary"/></svg>