<svg xmlns="http://www.w3.org/2000/svg" viewBox="0 0 576 512"><defs><style>.fa-secondary{opacity:.4}</style></defs><path d="M194.36 416L101 256l93.36-160h187.33L475 256l-93.31 160z" class="fa-secondary"/><path d="M400 16H176a48.12 48.12 0 0 0-41.5 23.8l-112 192a48.19 48.19 0 0 0 0 48.4l112 192A48.12 48.12 0 0 0 176 496h224a48.1 48.1 0 0 0 41.5-23.8l112-192a48.14 48.14 0 0 0 0-48.4l-112-192A48.1 48.1 0 0 0 400 16zM194.36 416L101 256l93.36-160h187.33L475 256l-93.31 160z" class="fa-primary"/></svg>