<svg xmlns="http://www.w3.org/2000/svg" viewBox="0 0 576 512"><defs><style>.fa-secondary{opacity:.4}</style></defs><path d="M6.36 460.84C64 383.87 64 320 64 320v-64C64 109.45 192 0 287.6 0h149.11C454.22 0 463 21.17 450.6 33.55L410.85 73.3C465.66 133 512 172 512 256v64s0 63.87 57.67 140.84A31.1 31.1 0 0 1 576 480c-.19 16.52-13.46 32-32.33 32h-95.4V320c0-88.22-71.78-160-160-160s-160 71.78-160 160v192H32.33C13.46 512 .19 496.52 0 480a31.1 31.1 0 0 1 6.36-19.16z" class="fa-secondary"/><path d="M416.27 320v192h-256V320a128 128 0 0 1 256 0z" class="fa-primary"/></svg>