<svg xmlns="http://www.w3.org/2000/svg" viewBox="0 0 576 512"><defs><style>.fa-secondary{opacity:.4}</style></defs><path d="M64.36 215.74A39.94 39.94 0 0 0 48 248v56a16 16 0 0 1-16 16H16a16 16 0 0 1-16-16v-56a88 88 0 0 1 88-88h.45a95.61 95.61 0 0 0-24.09 55.74z" class="fa-secondary"/><path d="M567.35 54.8c-3.78-4-8.58-9.12-13.69-14.5 11.06-6.84 19.5-17.49 22.18-30.66A8.09 8.09 0 0 0 567.91 0h-120a128 128 0 0 0-128 128H160a96 96 0 0 0-65.56 166.12l-25.62 68.36a63.94 63.94 0 0 0-2.16 38l24.85 99.41A16 16 0 0 0 107 512h66a16 16 0 0 0 15.52-19.88l-26.33-105.26L186 323.27l134 22.31V496a16 16 0 0 0 16 16h64a16 16 0 0 0 16-16V318.22A111.5 111.5 0 0 0 448 240c0-.22-.07-.42-.08-.64V224l.08-32a1.07 1.07 0 0 1-.08.41v-55.52h.08l15.93 7.11 18.9 37.7a32 32 0 0 0 40.49 15.37l32.55-13A32 32 0 0 0 576 154.31l-.06-77.71a31.76 31.76 0 0 0-8.59-21.8zM511.93 96a16 16 0 1 1 16-16 16 16 0 0 1-16 16z" class="fa-primary"/></svg>