<svg xmlns="http://www.w3.org/2000/svg" viewBox="0 0 576 512"><defs><style>.fa-secondary{opacity:.4}</style></defs><path d="M0 432a48 48 0 0 0 48 48h480a48 48 0 0 0 48-48V128H0zm352-232a8 8 0 0 1 8-8h144a8 8 0 0 1 8 8v16a8 8 0 0 1-8 8H360a8 8 0 0 1-8-8zm0 64a8 8 0 0 1 8-8h144a8 8 0 0 1 8 8v16a8 8 0 0 1-8 8H360a8 8 0 0 1-8-8zm0 64a8 8 0 0 1 8-8h144a8 8 0 0 1 8 8v16a8 8 0 0 1-8 8H360a8 8 0 0 1-8-8zM176 192a64 64 0 1 1-64 64 64 64 0 0 1 64-64zM67.1 396.2A64.09 64.09 0 0 1 128 352h8.2a103 103 0 0 0 79.6 0h8.2a64.09 64.09 0 0 1 60.9 44.2c3.2 9.9-5.2 19.8-15.6 19.8H82.7c-10.4 0-18.8-10-15.6-19.8z" class="fa-secondary"/><path d="M176 320a64 64 0 1 0-64-64 64 64 0 0 0 64 64zm48 32h-8.2a103 103 0 0 1-79.6 0H128a64.09 64.09 0 0 0-60.9 44.2C63.9 406 72.3 416 82.7 416h186.6c10.4 0 18.8-9.9 15.6-19.8A64.09 64.09 0 0 0 224 352zM528 32H48A48 48 0 0 0 0 80v16h576V80a48 48 0 0 0-48-48z" class="fa-primary"/></svg>