<svg xmlns="http://www.w3.org/2000/svg" viewBox="0 0 640 512"><defs><style>.fa-secondary{opacity:.4}</style></defs><path d="M320 256c-15.67 0-71.8 5.54-71.8 75.59 0 53 57.6 116.41 72 116.41s72-63.3 72-116.41C392.2 257 327.52 256 320 256zm0 128c-11.9-14.3-24-44.2-24-58.2 0-12.1 10.7-21.8 24-21.8s24 9.8 24 21.8c0 13.99-12.1 43.89-24 58.2zM147 236c-14.66-5.5-69.17-20-93.77 45.56-18.61 49.62 13 129.22 26.53 134.28s89.65-34 108.3-83.71C214.22 262.34 154 238.67 147 236zm-2 73.77c-5 13.14-26.81 36.89-43 46.1-6.12-17.57-6.94-49.82-2-62.93 4.25-11.33 17.68-16.65 30.13-12s19.02 17.63 14.81 28.86zm441.8-28.18C562.2 216 507.69 230.53 493 236c-7 2.64-67.24 26.31-41.06 96.13 18.65 49.73 94.81 88.77 108.3 83.71s45.17-84.63 26.56-134.25zM538 355.87c-16.17-9.21-38-33-42.91-46.07-4.22-11.23 2.36-24.17 14.81-28.84s25.88.65 30.13 12c4.89 13.09 4.07 45.34-2.03 62.91z" class="fa-secondary"/><path d="M632.58 121.68c-38.09 22.4-81.09 40-127 53l20.35 56.14a82.78 82.78 0 0 0-60.2 22.28l-23.15-63.82a702.2 702.2 0 0 1-90.4 9.8v63.37a82.78 82.78 0 0 0-64 0v-63.37a700.28 700.28 0 0 1-90.4-9.8l-23.14 63.82a85.71 85.71 0 0 0-27.47-17.1 84.92 84.92 0 0 0-32.73-5.21l20.35-56.14c-45.89-13-88.89-30.6-127-53-7.9-4.6-10.1-15.1-5.2-22.9l17.5-27.4a16 16 0 0 1 21.8-5.1C118 110.68 216 135 320 135s202-24.3 278.1-68.7a16 16 0 0 1 21.79 5.1l17.5 27.4c4.89 7.78 2.69 18.28-4.81 22.88z" class="fa-primary"/></svg>