<svg xmlns="http://www.w3.org/2000/svg" viewBox="0 0 512 512"><defs><style>.fa-secondary{opacity:.4}</style></defs><path d="M343.3 89.77l-48.5-48.39a32 32 0 0 0-45.3 0L201 89.77c-10.4 10.5-11.5 26.31-4.3 38.61h151c7.2-12.3 6.1-28.11-4.4-38.61zm-142.4-45c-5.9-7.29-14.5-12.39-24.6-12.39H64a32 32 0 0 0-32 32v63.89h130.1a63.41 63.41 0 0 1 16.4-61.1z" class="fa-secondary"/><path d="M400 160.27H160v63.5a32 32 0 0 1-64 0v-63.5H32a32 32 0 0 0-32 32v191.81A95.94 95.94 0 0 0 96 480h192a95.94 95.94 0 0 0 96-95.9h16a111.91 111.91 0 1 0 0-223.81zm0 159.9h-16v-95.9h16a48 48 0 1 1 0 95.9z" class="fa-primary"/></svg>