<svg xmlns="http://www.w3.org/2000/svg" viewBox="0 0 640 512"><defs><style>.fa-secondary{opacity:.4}</style></defs><path d="M634.6 33.32a10.48 10.48 0 0 0-14.26 4.08L535 192l.37.1c2.85-.1 5.73-.1 8.63-.1a95.48 95.48 0 0 1 56.9 18.73l38.83-165.87a10.49 10.49 0 0 0-5.13-11.54zM176 128a16 16 0 0 0-8.88 2.69L96 178.11l-71.12-47.42A16 16 0 0 0 0 144v81a32 32 0 0 0 14.25 26.6L64 282.12h64l49.75-30.51A32 32 0 0 0 192 225v-81a16 16 0 0 0-16-16zm256 192a16 16 0 1 0 16 16 16 16 0 0 0-16-16z" class="fa-secondary"/><path d="M544 192c-243 0-315.29 224-380.12 224A35.92 35.92 0 0 1 128 380.11v-98H64v98A100 100 0 0 0 163.88 480H576a64 64 0 0 0 64-64V288a96.1 96.1 0 0 0-96-96zM432 352a16 16 0 1 1 16-16 16 16 0 0 1-16 16z" class="fa-primary"/></svg>