<svg xmlns="http://www.w3.org/2000/svg" viewBox="0 0 512 512"><defs><style>.fa-secondary{opacity:.4}</style></defs><path d="M480 96h20a12 12 0 0 0 12-12V44a12 12 0 0 0-12-12h-40a12 12 0 0 0-12 12v20H64V44a12 12 0 0 0-12-12H12A12 12 0 0 0 0 44v40a12 12 0 0 0 12 12h20v320H12a12 12 0 0 0-12 12v40a12 12 0 0 0 12 12h40a12 12 0 0 0 12-12v-20h384v20a12 12 0 0 0 12 12h40a12 12 0 0 0 12-12v-40a12 12 0 0 0-12-12h-20V96zM96 276V140a12 12 0 0 1 12-12h168a12 12 0 0 1 12 12v136a12 12 0 0 1-12 12H108a12 12 0 0 1-12-12zm320 96a12 12 0 0 1-12 12H236a12 12 0 0 1-12-12v-52h72a24 24 0 0 0 24-24v-72h84a12 12 0 0 1 12 12z" class="fa-secondary"/><path d="M96 276V140a12 12 0 0 1 12-12h168a12 12 0 0 1 12 12v136a12 12 0 0 1-12 12H108a12 12 0 0 1-12-12z" class="fa-primary"/></svg>