<svg xmlns="http://www.w3.org/2000/svg" viewBox="0 0 512 512"><defs><style>.fa-secondary{opacity:.4}</style></defs><path d="M497.9 150.6L361.43 14.1A48 48 0 0 0 327.54 0H184.46a48 48 0 0 0-33.89 14.1L14.1 150.5A48 48 0 0 0 0 184.4v143.1a48 48 0 0 0 14.1 33.9l136.47 136.5a48 48 0 0 0 33.89 14.1h143.08a48 48 0 0 0 33.89-14.1L497.9 361.4a48 48 0 0 0 14.1-33.9v-143a48 48 0 0 0-14.1-33.9zM432 315.39L315.43 432H196.57L80 315.39V196.52L196.57 80h118.86L432 196.61z" class="fa-secondary"/><path d="M432 196.61v118.78L315.42 432H196.58L80 315.39V196.52L196.58 80h118.84z" class="fa-primary"/></svg>