<svg xmlns="http://www.w3.org/2000/svg" viewBox="0 0 640 512"><defs><style>.fa-secondary{opacity:.4}</style></defs><path d="M615.12 320H384v64h192v32H384v64h231a23.94 23.94 0 0 0 24-23.88V344a23.94 23.94 0 0 0-23.88-24zm0-288H480v64h96v32h-96v64h135a23.94 23.94 0 0 0 24-23.88V56a23.94 23.94 0 0 0-23.88-24z" class="fa-secondary"/><path d="M96 416H64a64.06 64.06 0 0 0-64 64v16a16 16 0 0 0 16 16h128a16 16 0 0 0 16-16v-16a64.06 64.06 0 0 0-64-64zm0-288H64a64.06 64.06 0 0 0-64 64v16a16 16 0 0 0 16 16h128a16 16 0 0 0 16-16v-16a64.06 64.06 0 0 0-64-64zm32 208a48 48 0 1 0-48 48 48 48 0 0 0 48-48zM80 96a48 48 0 1 0-48-48 48 48 0 0 0 48 48zm144 247.88V456a23.94 23.94 0 0 0 23.88 24H384V320H248a23.94 23.94 0 0 0-24 23.88zM248 32a23.94 23.94 0 0 0-24 23.88V168a23.94 23.94 0 0 0 23.88 24H480V32z" class="fa-primary"/></svg>