<svg xmlns="http://www.w3.org/2000/svg" viewBox="0 0 576 512"><defs><style>.fa-secondary{opacity:.4}</style></defs><path d="M262.7 129.57C379.8 114.57 480 205.77 480 320v144a16 16 0 0 1-16 16h-32a16 16 0 0 1-16-16V325.67c0-66.9-48.7-126.6-115.2-133.1C224.5 185.17 160 245.17 160 320v144a16 16 0 0 1-16 16h-32a16 16 0 0 1-16-16V326.67c0-97.6 70-184.7 166.7-197.1z" class="fa-secondary"/><path d="M268.3 32.67C115.4 42.87 0 176.87 0 330.17V464a16 16 0 0 0 16 16h32a16 16 0 0 0 16-16V320C64 186.8 180.9 80.3 317.5 97.9 430.4 112.37 512 214 512 327.77V464a16 16 0 0 0 16 16h32a16 16 0 0 0 16-16V320c0-165.33-140-298.63-307.7-287.33zm.6 193.2c-45.6 8.9-76.9 51.5-76.9 97.9V464a16 16 0 0 0 16 16h32a16 16 0 0 0 16-16V320a32 32 0 0 1 64 0v144a16 16 0 0 0 16 16h32a16 16 0 0 0 16-16V320a96.1 96.1 0 0 0-115.1-94.13z" class="fa-primary"/></svg>