<svg xmlns="http://www.w3.org/2000/svg" viewBox="0 0 512 512"><defs><style>.fa-secondary{opacity:.4}</style></defs><path d="M256 72a184 184 0 1 1-130.11 53.89A182.82 182.82 0 0 1 256 72m0-64C119 8 8 119 8 256s111 248 248 248 248-111 248-248S393 8 256 8z" class="fa-secondary"/><path d="M363.41 360.41c-46.73-84.82-43.3-78.63-44.7-81 23.43-15.17 37.94-43 37.94-74.48 0-54.25-31.5-89.25-105.49-89.25h-70.67a24 24 0 0 0-24 24V372a24 24 0 0 0 24 24h22.57a24 24 0 0 0 24-24v-71.66h25.55l44.13 82.93A24 24 0 0 0 317.93 396h24.46a24 24 0 0 0 21.02-35.59zm-106.48-124.5h-29.87v-56.14h23.37c28.67 0 34.93 8.77 34.93 27.7 0 18.61-9.83 28.44-28.43 28.44z" class="fa-primary"/></svg>