<svg xmlns="http://www.w3.org/2000/svg" viewBox="0 0 576 512"><defs><style>.fa-secondary{opacity:.4}</style></defs><path d="M576 208v-96a48 48 0 0 0-48-48H48a48 48 0 0 0-48 48v96a48 48 0 0 1 0 96v96a48 48 0 0 0 48 48h480a48 48 0 0 0 48-48v-96a48 48 0 0 1 0-96zm-64-43.95a113.86 113.86 0 0 0-15.2 12.75 112 112 0 0 0 0 158.4A113.86 113.86 0 0 0 512 348v36H64v-36a113.86 113.86 0 0 0 15.2-12.8 112 112 0 0 0 0-158.4A113.86 113.86 0 0 0 64 164.05V128h448z" class="fa-secondary"/><path d="M512 164.05a113.86 113.86 0 0 0-15.2 12.75 112 112 0 0 0 0 158.4A113.86 113.86 0 0 0 512 348v36H64v-36a113.86 113.86 0 0 0 15.2-12.8 112 112 0 0 0 0-158.4A113.86 113.86 0 0 0 64 164.05V128h448z" class="fa-primary"/></svg>